<svg width="10" height="15" viewBox="0 0 10 15" fill="none" xmlns="http://www.w3.org/2000/svg">
<path d="M8.06132 14.76C7.85603 14.7601 7.65275 14.7206 7.46325 14.6437C7.27375 14.5668 7.10179 14.454 6.95732 14.312L1.03827 8.48796C0.899503 8.35497 0.789295 8.19641 0.714067 8.02153C0.63884 7.84664 0.600098 7.65893 0.600098 7.46932C0.600098 7.27971 0.63884 7.092 0.714067 6.91711C0.789295 6.74223 0.899503 6.58367 1.03827 6.45068L7.17237 0.6278C7.36599 0.44566 7.6045 0.315151 7.86494 0.248847C8.12537 0.182543 8.39896 0.182678 8.65932 0.24924C8.91806 0.313259 9.15493 0.442503 9.3461 0.623972C9.53728 0.805441 9.67602 1.03274 9.74837 1.283C9.81791 1.53146 9.81756 1.79356 9.74735 2.04184C9.67715 2.29012 9.53967 2.51544 9.34932 2.6942L4.28932 7.47996L9.16532 12.2825C9.30638 12.4157 9.41852 12.5752 9.4951 12.7514C9.57169 12.9277 9.61115 13.1171 9.61115 13.3084C9.61115 13.4998 9.57169 13.6892 9.4951 13.8654C9.41852 14.0417 9.30638 14.2011 9.16532 14.3344C8.86907 14.6117 8.47215 14.7635 8.06132 14.7566V14.76Z" fill="#191919"/>
</svg>
