<svg width="32" height="32" viewBox="0 0 32 32" fill="none" xmlns="http://www.w3.org/2000/svg">
<path d="M17.25 12.5C17.0511 12.5 16.8603 12.579 16.7197 12.7197C16.579 12.8603 16.5 13.0511 16.5 13.25C16.5 13.4489 16.579 13.6397 16.7197 13.7803C16.8603 13.921 17.0511 14 17.25 14H20.75C20.9489 14 21.1397 13.921 21.2803 13.7803C21.421 13.6397 21.5 13.4489 21.5 13.25C21.5 13.0511 21.421 12.8603 21.2803 12.7197C21.1397 12.579 20.9489 12.5 20.75 12.5H17.25ZM16.5 18.75C16.5 18.5511 16.579 18.3603 16.7197 18.2197C16.8603 18.079 17.0511 18 17.25 18H20.75C20.9489 18 21.1397 18.079 21.2803 18.2197C21.421 18.3603 21.5 18.5511 21.5 18.75C21.5 18.9489 21.421 19.1397 21.2803 19.2803C21.1397 19.421 20.9489 19.5 20.75 19.5H17.25C17.0511 19.5 16.8603 19.421 16.7197 19.2803C16.579 19.1397 16.5 18.9489 16.5 18.75ZM14.78 11.72C14.9205 11.8606 14.9993 12.0512 14.9993 12.25C14.9993 12.4488 14.9205 12.6394 14.78 12.78L12.78 14.78C12.6394 14.9205 12.4488 14.9993 12.25 14.9993C12.0512 14.9993 11.8606 14.9205 11.72 14.78L10.72 13.78C10.5875 13.6378 10.5154 13.4498 10.5188 13.2555C10.5223 13.0612 10.601 12.8758 10.7384 12.7384C10.8758 12.601 11.0612 12.5223 11.2555 12.5188C11.4498 12.5154 11.6378 12.5875 11.78 12.72L12.25 13.19L13.72 11.72C13.8606 11.5795 14.0512 11.5007 14.25 11.5007C14.4488 11.5007 14.6394 11.5795 14.78 11.72ZM14.78 18.28C14.8537 18.2113 14.9128 18.1285 14.9538 18.0365C14.9948 17.9445 15.0168 17.8452 15.0186 17.7445C15.0204 17.6438 15.0018 17.5438 14.9641 17.4504C14.9264 17.357 14.8703 17.2722 14.799 17.201C14.7278 17.1297 14.643 17.0736 14.5496 17.0359C14.4562 16.9982 14.3562 16.9796 14.2555 16.9814C14.1548 16.9832 14.0555 17.0052 13.9635 17.0462C13.8715 17.0872 13.7887 17.1463 13.72 17.22L12.25 18.69L11.78 18.22C11.6378 18.0875 11.4498 18.0154 11.2555 18.0188C11.0612 18.0223 10.8758 18.101 10.7384 18.2384C10.601 18.3758 10.5223 18.5612 10.5188 18.7555C10.5154 18.9498 10.5875 19.1378 10.72 19.28L11.72 20.28C11.8606 20.4205 12.0512 20.4993 12.25 20.4993C12.4488 20.4993 12.6394 20.4205 12.78 20.28L14.78 18.28ZM9.25 7C8.65326 7 8.08097 7.23705 7.65901 7.65901C7.23705 8.08097 7 8.65326 7 9.25V22.75C7 23.3467 7.23705 23.919 7.65901 24.341C8.08097 24.7629 8.65326 25 9.25 25H22.75C23.3467 25 23.919 24.7629 24.341 24.341C24.7629 23.919 25 23.3467 25 22.75V9.25C25 8.65326 24.7629 8.08097 24.341 7.65901C23.919 7.23705 23.3467 7 22.75 7H9.25ZM8.5 9.25C8.5 9.05109 8.57902 8.86032 8.71967 8.71967C8.86032 8.57902 9.05109 8.5 9.25 8.5H22.75C22.9489 8.5 23.1397 8.57902 23.2803 8.71967C23.421 8.86032 23.5 9.05109 23.5 9.25V22.75C23.5 22.9489 23.421 23.1397 23.2803 23.2803C23.1397 23.421 22.9489 23.5 22.75 23.5H9.25C9.05109 23.5 8.86032 23.421 8.71967 23.2803C8.57902 23.1397 8.5 22.9489 8.5 22.75V9.25Z" fill="#132B35"/>
</svg>
