<svg width="32" height="32" viewBox="0 0 32 32" fill="none" xmlns="http://www.w3.org/2000/svg">
<path d="M9.25 7C8.65326 7 8.08097 7.23705 7.65901 7.65901C7.23705 8.08097 7 8.65326 7 9.25V22.75C7 23.3467 7.23705 23.919 7.65901 24.341C8.08097 24.7629 8.65326 25 9.25 25H22.75C23.3467 25 23.919 24.7629 24.341 24.341C24.7629 23.919 25 23.3467 25 22.75V9.25C25 8.65326 24.7629 8.08097 24.341 7.65901C23.919 7.23705 23.3467 7 22.75 7H9.25ZM14.78 12.78L12.78 14.78C12.6394 14.9205 12.4488 14.9993 12.25 14.9993C12.0512 14.9993 11.8606 14.9205 11.72 14.78L10.72 13.78C10.5875 13.6378 10.5154 13.4498 10.5188 13.2555C10.5223 13.0612 10.601 12.8758 10.7384 12.7384C10.8758 12.601 11.0612 12.5223 11.2555 12.5188C11.4498 12.5154 11.6378 12.5875 11.78 12.72L12.25 13.19L13.72 11.72C13.7887 11.6463 13.8715 11.5872 13.9635 11.5462C14.0555 11.5052 14.1548 11.4832 14.2555 11.4814C14.3562 11.4796 14.4562 11.4982 14.5496 11.5359C14.643 11.5736 14.7278 11.6297 14.799 11.701C14.8703 11.7722 14.9264 11.857 14.9641 11.9504C15.0018 12.0438 15.0204 12.1438 15.0186 12.2445C15.0168 12.3452 14.9948 12.4445 14.9538 12.5365C14.9128 12.6285 14.8537 12.7113 14.78 12.78ZM20.75 12.5C20.9489 12.5 21.1397 12.579 21.2803 12.7197C21.421 12.8603 21.5 13.0511 21.5 13.25C21.5 13.4489 21.421 13.6397 21.2803 13.7803C21.1397 13.921 20.9489 14 20.75 14H17.25C17.0511 14 16.8603 13.921 16.7197 13.7803C16.579 13.6397 16.5 13.4489 16.5 13.25C16.5 13.0511 16.579 12.8603 16.7197 12.7197C16.8603 12.579 17.0511 12.5 17.25 12.5H20.75ZM16.5 18.75C16.5 18.5511 16.579 18.3603 16.7197 18.2197C16.8603 18.079 17.0511 18 17.25 18H20.75C20.9489 18 21.1397 18.079 21.2803 18.2197C21.421 18.3603 21.5 18.5511 21.5 18.75C21.5 18.9489 21.421 19.1397 21.2803 19.2803C21.1397 19.421 20.9489 19.5 20.75 19.5H17.25C17.0511 19.5 16.8603 19.421 16.7197 19.2803C16.579 19.1397 16.5 18.9489 16.5 18.75ZM14.78 17.22C14.9205 17.3606 14.9993 17.5512 14.9993 17.75C14.9993 17.9488 14.9205 18.1394 14.78 18.28L12.78 20.28C12.6394 20.4205 12.4488 20.4993 12.25 20.4993C12.0512 20.4993 11.8606 20.4205 11.72 20.28L10.72 19.28C10.6463 19.2113 10.5872 19.1285 10.5462 19.0365C10.5052 18.9445 10.4832 18.8452 10.4814 18.7445C10.4796 18.6438 10.4982 18.5438 10.5359 18.4504C10.5736 18.357 10.6297 18.2722 10.701 18.201C10.7722 18.1297 10.857 18.0736 10.9504 18.0359C11.0438 17.9982 11.1438 17.9796 11.2445 17.9814C11.3452 17.9832 11.4445 18.0052 11.5365 18.0462C11.6285 18.0872 11.7113 18.1463 11.78 18.22L12.25 18.69L13.72 17.22C13.8606 17.0795 14.0512 17.0007 14.25 17.0007C14.4488 17.0007 14.6394 17.0795 14.78 17.22Z" fill="#132B35"/>
</svg>
