<svg width="32" height="32" viewBox="0 0 32 32" fill="none" xmlns="http://www.w3.org/2000/svg">
<path d="M10 20.5H7V25H10V20.5ZM17.5 14.5H14.5V25H17.5V14.5ZM25 7V25H22V7H25ZM22 5.5C21.6022 5.5 21.2206 5.65804 20.9393 5.93934C20.658 6.22064 20.5 6.60218 20.5 7V25C20.5 25.3978 20.658 25.7794 20.9393 26.0607C21.2206 26.342 21.6022 26.5 22 26.5H25C25.3978 26.5 25.7794 26.342 26.0607 26.0607C26.342 25.7794 26.5 25.3978 26.5 25V7C26.5 6.60218 26.342 6.22064 26.0607 5.93934C25.7794 5.65804 25.3978 5.5 25 5.5H22ZM13 14.5C13 14.1022 13.158 13.7206 13.4393 13.4393C13.7206 13.158 14.1022 13 14.5 13H17.5C17.8978 13 18.2794 13.158 18.5607 13.4393C18.842 13.7206 19 14.1022 19 14.5V25C19 25.3978 18.842 25.7794 18.5607 26.0607C18.2794 26.342 17.8978 26.5 17.5 26.5H14.5C14.1022 26.5 13.7206 26.342 13.4393 26.0607C13.158 25.7794 13 25.3978 13 25V14.5ZM5.5 20.5C5.5 20.1022 5.65804 19.7206 5.93934 19.4393C6.22064 19.158 6.60218 19 7 19H10C10.3978 19 10.7794 19.158 11.0607 19.4393C11.342 19.7206 11.5 20.1022 11.5 20.5V25C11.5 25.3978 11.342 25.7794 11.0607 26.0607C10.7794 26.342 10.3978 26.5 10 26.5H7C6.60218 26.5 6.22064 26.342 5.93934 26.0607C5.65804 25.7794 5.5 25.3978 5.5 25V20.5Z" fill="#132B35"/>
</svg>
